<?xml version="1.0" encoding="UTF-8"?>
<svg id="Layer_1" data-name="Layer 1" xmlns="http://www.w3.org/2000/svg" viewBox="0 0 727.24 565.28">
  <defs>
    <style>
      .cls-1 {
        stroke: #f7b2ab;
      }

      .cls-1, .cls-2, .cls-3, .cls-4, .cls-5, .cls-6 {
        fill: none;
        stroke-width: 2px;
      }

      .cls-2 {
        stroke: #ef5d5c;
      }

      .cls-3 {
        stroke: #f8bda2;
      }

      .cls-7 {
        fill: #7e30e1;
      }

      .cls-7, .cls-8, .cls-9 {
        stroke-width: 0px;
      }

      .cls-4 {
        stroke: #f7aab1;
      }

      .cls-8 {
        fill: #fff;
      }

      .cls-9 {
        fill: #49108b;
      }

      .cls-5 {
        stroke: #f0704e;
      }

      .cls-6 {
        stroke: #fcc697;
      }
    </style>
  </defs>
  <path class="cls-8" d="M650.71,470.14c-7.27,10.26-12.25,20.51-13.03,32.87-.06,1.01-.34,1.91-.85,2.71-8.78,13.97-18,26.97-29.75,38.48-1.89,1.85-3.94,3.3-6.15,4.37-.56.27-1.23.04-1.5-.52-.04-.08-.07-.16-.08-.24-.59-2.55.64-6.79,1.44-9.27,5.84-17.98,11.24-34.04,16.19-48.19,3.16-9.03,6.2-18.07,9.12-27.12.08-.24.3-.41.56-.4,11.09.04,22.09-1.19,32.98-3.7,1.21-.28,1.34-.03.37.76-3.17,2.57-6.27,5.98-9.3,10.25Z"/>
  <path class="cls-8" d="M691.81,466.13c2.74,4.05-.51,8.95-3.41,12.03-4.48,4.75-9.83,8.39-16.05,10.93-2.51,1.03-5.06,2.1-7.67,3.22-.87.37-1.08.14-.63-.69,5.56-10.27,13.77-21.82,24.62-26.42,1.13-.48,2.45-.09,3.14.93Z"/>
  <g>
    <g>
      <path class="cls-6" d="M157.4,28.94c-.11.26-.42.38-.68.27-.09-.04-.17-.11-.23-.19-4.11-6.2-10.68-8.52-17.12-11.33-3.16-1.38-7.17-2.07-12.02-2.07-.73,0-1.25.31-1.57.94-.23.46-.19,1.01.12,1.42,2.95,3.95,5.53,8.17,7.73,12.68,4.69,9.61,9.32,18.44,13.91,26.51,2.55,4.48,7.15,6.47,11.69,8.31,3.74,1.51,6.53.65,8.36-2.58,1.67-2.93,3.13-6.31,4.4-10.14,4.02-12.17,6.53-24.15,7.53-35.95.38-4.43.95-10.71-.95-14.84-.39-.84-1.38-1.2-2.22-.82-.02.01-.05.02-.07.04-1.43.75-2.72,1.82-3.85,3.21-6.15,7.55-11.16,15.73-15.03,24.54" vector-effect="non-scaling-stroke"/>
      <path class="cls-1" d="M541.93,13.21c-1.45-2.44-2.91-4.63-5.74-5.26-.64-.14-1.28.26-1.42.9,0,0,0,.01,0,.02-1.2,5.72-1.62,10.83-1.27,15.34.26,3.38,1.65,5.96,4.17,7.74,3.44,2.43,6.69-1.13,9.1-3.18,6.7-5.69,13.56-12.59,16.69-21.02.26-.71-.11-1.5-.82-1.76-.03-.01-.07-.02-.1-.03-5-1.41-14.98,5.03-19.31,7.59-.45.27-1.03.11-1.3-.34,0,0,0,0,0,0" vector-effect="non-scaling-stroke"/>
      <path class="cls-1" d="M329.99,214.76l6.63,17.11c.27.68.25,1.45-.06,2.12-12.11,26.48-29.27,49-51.46,67.56-2.5,2.09-4.82,4.19-7.62,5.91-.75.45-1.44.38-2.08-.22l-9.95-9.33c-.2-.18-.5-.17-.68.03-.05.05-.08.11-.1.17-.14.41-.17.82-.08,1.24,1.02,4.87,2.68,9.66,4.99,14.37.25.49.12.86-.38,1.09l-12.65,5.87" vector-effect="non-scaling-stroke"/>
      <path class="cls-3" d="M256.55,320.68c-13.76,6.29-27.99,11.19-42.68,14.71-11.6,2.77-23.36,3.95-35.27,3.54-6.75-.24-13.25-1.45-19.49-3.64-.33-.12-.5-.48-.38-.8.02-.07.06-.13.1-.19,27.09-33.04,53.42-66.25,78.16-101.33.42-.6.63-.54.64.19.03,7.21-.48,15.06,2.73,21.69,2.47,5.11,6.2,8.97,11.21,11.56,1.44.75,2.99.5,4.2-.57,4.47-3.94,8.68-8.22,12.65-12.84,9.8-11.41,18.61-24.16,26.42-38.27,3.64-6.57,6.9-13.82,10.14-20.57,1.47-3.05,1.36-6.07-.32-9.05-1.65-2.92-7.27-.26-9.27.95-12.11,7.38-22.29,17.24-30.56,28.88-.73,1.03-1.06.91-.99-.35.69-11.91-6.33-23.46-16.82-29.21-3.34-1.83-10.7-3.44-9.98,3.17.9,8.29,1,15.99.31,23.09-.45,4.64-3.2,8.69-5.8,12.38-8.15,11.56-16.52,22.52-25.11,32.87-13.84,16.67-27.63,33.06-41.38,49.17-.28.33-.63.53-1.05.61-.46.09-.6-.07-.42-.5,6.17-15.09,12.57-31.76,19.19-49.99,1.73-4.77,2.88-9.07,3.44-12.92.56-3.83-.71-7.41-3.82-10.76-2.61-2.81-7.54-7.28-11-3.01-1.09,1.34-2.16,2.81-3.21,4.4-10.39,15.73-20.38,31-30.08,47.15-6.13,10.19-12.37,20.35-18.73,30.49-.64,1.02-1,2.45-1.9,3.26-.69.63-.91.49-.66-.41,1.37-4.86,2.9-9.71,4.6-14.54,6.72-19.13,13.41-37.69,20.08-55.7,12.42-33.59,26.83-66.14,42.76-98.14,8.73-17.53,18.84-34.55,30.31-51.08,6.35-9.13,13.83-17.93,22.44-26.4,8.56-8.41,20.9-17.63,32.6-17.91,7.69-.18,12.55,4.68,16.63,10.55.85,1.24,1.12,1.12.81-.35-2.01-9.45-6.8-16.38-14.36-20.81-31.76-18.58-73.44,30.04-89.74,52.4-12.46,17.07-24.17,35.99-35.14,56.74-26.89,50.87-47.53,105.3-61.91,163.29-2.42,9.76-4.16,18.54-5.22,26.33-.66,4.85-.72,10.65,2.51,14.65,4.16,5.16,9.51,7.91,16.05,8.26,3.84.2,8.21-6.4,10.38-9.22,7.45-9.69,14.23-19.69,20.35-29.99.13-.22.32-.37.56-.46.16-.06.33.02.39.17.02.05.02.11.01.17-.5,2.91-1.08,6.08-1.75,9.51-.75,3.9.49,7.05,3.73,9.46,2.82,2.11,5.89,3.87,9.2,5.3,20.16,8.7,44.84,8.94,66.48,5.13,23.27-4.09,45.47-12.16,66.6-24.22" vector-effect="non-scaling-stroke"/>
      <path class="cls-1" d="M275.19,327.52c3.87,6.03,7.21,10.51,10,13.44,2.96,3.11,5.53,5.22,7.72,6.33,3.51,1.77,7.43,1.73,11.76-.1,26.69-11.29,50.3-27.07,70.83-47.32" vector-effect="non-scaling-stroke"/>
      <path class="cls-4" d="M375.5,299.87l2.85-2.48c.48-.43,1.21-.4,1.67.06,18.13,18.57,39.83,34.99,63.87,44.79.43.17.91.19,1.36.05,5.01-1.65,9.93-3.34,14.76-5.08,16.87-6.07,32.99-13.9,48.38-23.49,44.55-27.75,82.89-66.66,106.55-113.65,10.75-21.34,15.69-43.69,14.82-67.06-1.21-32.47-15.22-57.06-42.04-73.76-21.79-13.57-48.28-17.7-73.62-13.94-10.6,1.57-21.44,3.51-32.51,5.8-.37.07-.65.28-.85.61-.2.36-.08.81.27,1.01.07.04.15.07.23.08,3.45.65,6.74,1,9.89,1.06,7.79.14,15.19.38,22.2.71,9.48.46,19.48,2.63,30,6.51,25.64,9.47,42.95,26.76,44.91,55.36,1.46,21.33-4.26,43.46-14.34,63.17-12.98,25.38-31.32,46.86-52.77,65.46-18.89,16.39-39.26,30.44-61.59,40.37-4.04,1.8-16.67,6.93-20.05,5.28-12.73-6.21-22.96-15.75-33.31-25.65-.53-.5-.62-1.32-.21-1.93,6.51-9.65,12.31-19.77,17.42-30.34" vector-effect="non-scaling-stroke"/>
      <path class="cls-1" d="M423.39,232.81c5.01-10.34,8.69-21.1,11.02-32.28,2.97-14.22,2.02-29.16-4.58-42.15-6.05-11.92-15.78-17.7-28.95-18.22-12.21-.49-24,4.91-32.1,13.7-7.25,7.86-11.51,17.22-16.14,27.01" vector-effect="non-scaling-stroke"/>
      <path class="cls-3" d="M352.64,180.87c-.1-.01-.19-.03-.26-.05-.19-.04-.31-.15-.37-.33-7.68-21.17-11.14-42.72-10.37-64.65.82-23.59,10.94-49.63,31.37-62.66,24.38-15.54,51.47,2.27,67.1,21.88,9.78,12.27,17.99,26.64,24.64,43.12,2.35,5.84,4.59,11.74,6.72,17.71.09.23.23.43.44.59.13.1.28.14.44.12.12-.02.21-.12.2-.24-2.74-42.88-19.97-89.41-63.4-105.76-15.02-5.65-29.35-5.27-42.98,1.14-8.56,4.03-15.97,9.5-22.22,16.39-24.52,27.06-31.15,62.73-28.65,98.18,1.66,23.52,6.56,46.34,14.69,68.45" vector-effect="non-scaling-stroke"/>
      <path class="cls-5" d="M352.64,180.87c.26.45.69.66,1.3.61.33-.03.59.09.79.35l1.3,1.72c.22.29.28.61.19.96l-1.33,5.33c-.08.31-.06.62.07.92.66,1.55-.14,3.19.05,4.86.01.17-.06.28-.23.33-.13.04-.23.12-.29.25-.04.08-.03.16.02.24.07.1.15.18.26.25.11.07.17.17.16.31l-.15,3.34c-.02.31-.18.5-.48.58l-.38.09c-.43.11-.72.37-.87.78-.31.82-.68,1.6-1.13,2.35-.29.48-.73.72-1.32.73-.35,0-.65.11-.92.33-.54.45-.94.99-1.2,1.63-.13.31-.35.41-.66.31-1.03-.31-1.96-.03-2.77.86-.25.28-.62.42-1,.4-1.41-.09-2.62.5-3.63,1.75-.25.31-.55.36-.88.14-1.07-.69-2.03-.52-2.86.49-1.81,2.21-3.69,3.39-5.66,3.54-.11.01-.21.06-.29.15-.03.04-.03.08-.02.12.12.35.04.4-.24.17-.33-.27-.49-.27-.48,0" vector-effect="non-scaling-stroke"/>
      <path class="cls-5" d="M256.55,320.68l1.54.74c.29.14.52.08.69-.19.29-.43.71-.63,1.26-.59.2.01.24.1.13.26-.08.11-.09.22-.02.33.1.17.25.27.45.3.35.05.67.16.96.32.26.15.39.46.31.75-.15.56.03.99.56,1.28.29.17.28.32-.03.45-.46.19-.68.57-.65,1.15.03.41.18.77.47,1.09.51.55.93,1.12,1.27,1.71.23.39.56.51.98.36.39-.13.64-.02.75.35.07.27.25.42.53.46.21.03.39-.01.55-.12.05-.03.08-.08.08-.15,0-.04-.01-.07-.04-.09-.15-.15-.13-.21.08-.2.78.03,1.57.05,2.38.04.19,0,.37-.06.53-.17.21-.15.23-.32.06-.51-.27-.31-.2-.43.2-.35.39.07.61-.09.64-.49.03-.46.28-.64.73-.54,1.21.28,2.32.16,3.34-.37.29-.15.53-.09.71.19.19.3.25.58.18.83" vector-effect="non-scaling-stroke"/>
      <path class="cls-2" d="M375.5,299.87l1.05-2.72c.12-.31.34-.49.67-.54.53-.08.97-.13,1.32-.15.72-.03.85-.33.4-.89-.16-.2-.31-.23-.46-.09-.37.35-.55.28-.53-.23,0-.16,0-.32-.02-.47-.03-.39.11-.78.39-1.06.34-.35.55-.75.62-1.22.07-.5.36-.76.87-.77,1.24-.04,1.86-.72,1.85-2.05,0-.34.11-.64.34-.9.79-.9,1.53-1.84,2.22-2.83,0,0,.39-.46,1.17-1.37.43-.5.7-1.09.82-1.78.02-.13.1-.18.23-.15.09.02.18.01.26-.02.1-.04.18-.11.23-.2.06-.11.04-.2-.05-.27-.15-.13-.17-.29-.07-.46,1.77-3.17,3.76-6.21,5.95-9.11.13-.17.21-.35.22-.54.01-.19.04-.38.08-.57.07-.34.26-.64.54-.85l2.48-1.91c.32-.24.56-.54.71-.91.44-1.02,1.16-1.88,2.16-2.58.69-.49,1.02-1.1.99-1.85-.01-.25.09-.42.32-.52.53-.23,1.05-.33,1.54-.3.24.02.37-.09.39-.33.04-.63.23-1.21.57-1.73.18-.27.31-.56.38-.87l.26-1.09c.08-.33.29-.53.62-.58.78-.13,1.13-.59,1.04-1.4,0-.09.03-.16.11-.2.65-.35,1.06-.86,1.23-1.54.09-.31.25-.57.5-.78,1.07-.91,1.71-2.11,1.91-3.58.04-.35.28-.65.62-.77l.9-.32c.2-.08.35-.25.39-.46.08-.45.28-.85.6-1.18.15-.15.23-.34.22-.56-.03-.92-.08-1.85-.17-2.79-.05-.49.05-.97.3-1.42.24-.45.53-.87.86-1.26.27-.32.22-.59-.13-.8-.09-.05-.14-.13-.15-.23-.05-.45.06-.88.33-1.27.17-.27.12-.47-.17-.62-.12-.06-.12-.13-.01-.21.41-.26.69-.62.86-1.07.13-.36.41-.65.77-.8.35-.13.6-.36.77-.69.19-.36.28-.75.26-1.16-.05-1.05.17-2.01.65-2.9.2-.37.44-.4.73-.09.08.09.18.12.31.08.39-.12.62-.38.71-.77.07-.31.18-.61.31-.89.18-.39.36-.39.53,0,.07.14.22.18.45.11.29-.07.44-.26.47-.56.03-.37.3-.45.8-.26.19.08.39.11.59.09.49-.03,1.02.11,1.59.43.27.15.3.34.08.56-.49.49-.65,1.08-.47,1.78.03.1.09.17.18.22.09.04.17.02.26-.05.13-.1.19-.23.17-.39-.01-.13.03-.25.14-.34.39-.33.6-.24.63.27.01.25.08.47.2.67" vector-effect="non-scaling-stroke"/>
      <path class="cls-3" d="M271.64,127.44c-.04.19-.22.32-.41.29-.05,0-.09-.03-.14-.06-7.1-5-14.68-5.79-22.75-2.38-2.14.9-4.35,1.82-6.64,2.76-.25.11-.37.39-.27.64.05.11.13.2.25.25,3.4,1.51,6.6,3.39,9.59,5.63,6.73,5.04,13.39,11.35,19.94,17.32,6.93,6.3,9.47-4.2,10.3-8.67,1.87-10.13,2.9-21.09,1.4-31.34-.11-.76-.82-1.28-1.58-1.17-.17.02-.32.08-.47.16-5.91,3.3-8.05,10.18-9.22,16.57" vector-effect="non-scaling-stroke"/>
      <path class="cls-4" d="M487.32,155.05l.5-8.61c.17-2.9-.68-5.47-2.54-7.7-.15-.18-.36-.43-.63-.75-1.83-2.19-2.99-1.88-3.48.93-.95,5.35-2.15,10.02-3.58,13.99-3.41,9.42-6.05,17.99-7.94,25.72-.65,2.65-.96,5.32-.93,7.99.05,6.69,6.22,11.04,11.75,13.73,2.87,1.39,5.49,1,7.86-1.18,16.33-15.02,29.88-32.81,40.73-52.3,2.35-4.22,3.72-8.98-1.79-11.73-5.52-2.76-12.27.74-17.3,3.03-8.73,3.95-15.99,9.69-21.76,17.21-.65.85-.95.74-.89-.33" vector-effect="non-scaling-stroke"/>
      <path class="cls-4" d="M394.15,541.53c-.71-.1-1.21-.75-1.11-1.46.01-.11.04-.22.08-.32,7.23-17.51,14.24-36.57,21.03-57.18,3.09-9.39,5.74-18.36,7.94-26.91,2.12-8.26,2.52-15.73,1.21-22.42-2.12-10.83-12.51-18.88-23.58-15.25-.48.16-.73.68-.57,1.15.05.14.12.26.22.36,5.31,5.23,3.67,11.94,2.14,18.26-2.01,8.35-4.75,17.64-8.2,27.89-6.58,19.51-13.36,38.81-20.35,57.89-1.52,4.16-2.84,8.61-3.22,13.09-.99,11.88,6.5,23.56,18.32,26.53,14.95,3.76,31.85-2.57,45.02-10.32,29.24-17.2,55.15-45.82,63.68-79.1,2.58-10.07,3.09-20.72,1.53-31.97-2.84-20.45-14.39-38.66-32.43-48.91-12.92-7.35-27.01-9.42-41.81-7.88-24.13,2.5-44.3,18.39-55.64,39.26-3.5,6.44-6.49,15.11-5.53,22.52.35,2.73,1.63,4.93,3.83,6.59.41.31.82.62,1.23.93,2.18,1.65,3.23,1.1,3.16-1.63-.1-4.07,1.19-8.1,3.86-12.11,9.29-13.92,25.33-27.52,42.12-33.38,11.34-3.96,22.87-5.96,34.36-3.56,5.67,1.19,9.93,4.72,12.77,9.57,10.96,18.69,10.05,43.41,2.38,63.27-10.17,26.34-27.6,46.1-52.31,59.28-5.48,2.92-13.84,6.67-20.13,5.81" vector-effect="non-scaling-stroke"/>
      <path class="cls-4" d="M27.43,541.32c.2-1.74.63-3.43,1.29-5.08,5.61-14.05,11.05-27.95,16.3-41.7,7.89-20.67,13.9-41.03,18.02-61.07,2.65-12.91,4.16-32.03-8.27-40.8-10.78-7.62-24.26-2.23-32.79,6.48-7.55,7.71-13.3,18.4-17.33,28.79-1.73,4.45-2.9,9.01-3.51,13.68-.7,5.37,1.23,9.26,5.78,11.65.57.3,1.28.07,1.58-.5.1-.2.14-.42.12-.63-.71-8.83,1.89-15.13,6-22.74,4.96-9.17,10.78-18.4,18.73-23.18.64-.38,1.44-.35,2.04.09,6.13,4.46,3.41,18.73,2.07,24.97-2.39,11.11-5.77,23.26-10.16,36.45-4.91,14.75-11.01,31.93-18.3,51.55-3.95,10.63-6.7,20.33-2.3,30.92,6.4,15.41,23.71,14.42,37.15,11.17,15.31-3.7,33.89-9.57,45.27-12.64,8.74-2.35,17.75-4.16,26.33-2.75.68.11,1.34-.3,1.55-.96,1.19-3.85.94-7.9-.76-12.15-3.19-7.96-13.5-8.41-20.65-7.73-18,1.73-36.72,7.9-54.6,13.36-4.29,1.31-8.75,2.24-13.11,3.23-.2.05-.4-.08-.44-.29,0-.04-.01-.08,0-.12" vector-effect="non-scaling-stroke"/>
      <path class="cls-4" d="M585.49,512.26c.58-.45.75-.32.5.37-4.61,12.74-8.74,33.48,2.47,43.55,7.18,6.44,14.87,3.82,21.55-2.05,11.54-10.16,20.9-22.19,29.35-34.38.14-.19.4-.24.6-.11.06.04.11.1.14.17,4.19,8.78,12.55,16.12,22.14,16.58,12.66.6,27.08-10.03,36.43-18.31,9.75-8.62,18.83-18,27.23-28.13.52-.63.44-1.17-.23-1.63l-4.03-2.75c-.68-.47-1.27-.38-1.78.27-2.53,3.23-5.63,6.67-9.32,10.33-9.93,9.84-20.19,19.63-31.89,26.19-2.89,1.63-5.92,2.76-9.08,3.4-6.12,1.23-9.71-4.22-9.68-9.69.03-4.85.4-9.73,1.09-14.64.11-.75.67-1.35,1.42-1.51,14.93-3.09,40.25-13.63,41.32-32.02.4-6.81-2.26-11.68-7.99-14.62-2.65-1.35-5.75-1.83-8.68-2.26-.44-.06-.58-.3-.41-.71,3-7.47,0-12.96-6.81-16.88-.59-.34-1.33-.27-1.86.17-4.32,3.59-9.36,6.32-15.12,8.19-10.21,3.31-20.69,5.2-31.43,5.67-.33.01-.45-.14-.34-.45,1.51-4.34,2.9-9.02,4.16-14.03,1.86-7.42,2.5-14.54-.93-21.4-5.06-10.12-17.34-10.79-24.34-2.44-.46.55-.39,1.38.16,1.85,0,0,0,0,0,0,2.16,1.75,3,4.05,2.51,6.92-1.49,8.77-4.26,19.13-8.32,31.06-.29.87-.72,1.67-1.28,2.41-.2.27-.46.44-.78.52-7.41,1.9-14.46,4.01-21.13,6.32-3.81,1.33-7.36,2.99-10.64,4.99-.48.29-.63.92-.34,1.4.12.2.3.35.52.43,1.53.55,3.17.83,4.92.82,7.76-.01,15.3-.17,22.63-.46.24-.01.44.17.45.41,0,.05,0,.1-.02.15-2.53,8.35-5.29,16.17-8.27,23.47-.98,2.39-2.26,4.7-3.85,6.93-7.37,10.35-15.35,20.47-24.86,28.81-1.29,1.13-1.74.87-1.35-.8,1.09-4.63,2.38-9.42,3.87-14.35.85-2.82,2.37-5.2,4.54-7.13,3.36-2.99,5.27-6.66,4.48-11.23-1.76-10.16-13-8.7-19.26-4.55-3.73,2.47-7.22,5.38-10.49,8.72-7.9,8.05-15.44,15.07-22.62,21.04-1.47,1.23-3.08,2.18-4.83,2.85-.48.19-1.03-.05-1.22-.53-.06-.14-.08-.29-.06-.44.67-6.82,3.19-13.65,7.55-20.49,6.54-10.27,14.74-19.74,25.07-24.39,7.04-3.17,11.89-.85,17.17,3.79.41.36,1.04.31,1.4-.1.08-.09.14-.2.18-.31,1.64-4.63-.89-12.13-2.96-16.73-6.5-14.38-22.17-10.84-32.9-4.31-20.94,12.73-36.04,41.11-33.59,65.62,1.05,10.41,9.19,16.81,19.55,13.74,2.93-.87,5.8-2.43,8.61-4.67,6.29-5.01,11.96-10.08,17.03-15.19.88-.88,1.24-.7,1.08.53-.55,4.27-.63,8.24-.24,11.91,1.06,10.04,9.96,13.23,18.21,8.69,2.77-1.53,5.39-3.43,7.87-5.7,6.21-5.67,11.62-11.79,16.21-18.35.14-.2.31-.38.51-.53" vector-effect="non-scaling-stroke"/>
      <path class="cls-4" d="M198.98,486.7c-.42,13.64-3.17,27.23-6.05,41.78-.69,3.53-1.52,9.67,1.73,12.13,3.12,2.35,6.58,3.11,10.38,2.26,2.32-.51,5.03-2.05,8.12-4.62,13.11-10.88,24.88-23.71,35.78-37.56,1.53-1.95,3.02-4.05,4.47-6.32.55-.87,1.38-1.54,2.45-1.6,3-.16,5.96-.71,8.88-1.65.19-.07.4.03.47.22.03.08.03.17,0,.26-3.02,8.45-3.4,17.16-1.14,26.12,1.87,7.42,5.84,12.95,12.83,16.29,4.19,1.99,8.57,2.85,13.12,2.56,4.61-.29,8.9-2.28,12.96-4.46,12.77-6.85,22.64-16.02,33.08-26.37,4.89-4.86,9.51-10.16,13.84-15.91.54-.72.49-1.39-.14-2.02l-2.82-2.79c-.7-.69-1.39-.68-2.08.04-10.75,11.37-21.68,22.48-34.07,31.88-5.51,4.19-20.89,15.53-25.41,3.83-2.27-5.9-1.3-13.87-.1-20.08.11-.57.46-.9,1.04-.97,11.89-1.45,22.45-5.99,31.7-13.63,11.83-9.78,13.56-29.96-4.49-34.4-14.17-3.49-28.91,7.96-37.54,18.33-2.38,2.87-4.59,5.76-6.64,8.69-2.23,3.2-6.39,3.83-9.98,4.23-.56.06-.74-.17-.55-.7,2.96-8.15,4.78-19.49-.7-26.33-1.63-2.03-3.86-3.23-6.67-3.58-5.86-.74-10.75,2.85-13.56,7.84-2.77,4.93-3.69,10.58-2.78,16.94.75,5.22,3.45,9.21,8.12,11.97.37.22.5.71.27,1.08-.01.02-.03.05-.04.07-7.73,10.47-16.26,20.53-25.61,30.17-1.65,1.71-2.17,1.41-1.56-.88,2.25-8.4,3.95-17.19,5.09-26.37,1.22-9.79.88-18.76-1.01-26.91-1.19-5.12-3.59-9.27-7.2-12.44-5.23-4.59-11.4-5.29-18.52-2.08-1.01.45-1.46,1.63-1.01,2.63.03.07.07.15.11.22,3.69,6.14,5.36,12.88,5.01,20.21-.06,1.17-.61,2.03-1.64,2.58-3.25,1.74-7.85,3.32-13.8,4.73-.43.1-.66-.07-.67-.52-.31-10.67-6.53-23.56-19.18-19.65-.45.13-.67-.03-.67-.49.02-5.08-2.94-8.62-8.04-9.58-15.32-2.89-28.76,13.78-34.01,26.35-3.99,9.57-6.36,19.39-7.09,29.46-.38,5.21-.05,9.82.98,13.83,4.72,18.3,25.2,20.75,39.25,11.32,13.42-9,22.71-24.56,27.28-40.14.12-.42.39-.67.82-.74,5.95-1.08,11.42-2.94,16.41-5.59.4-.21.59-.09.58.36" vector-effect="non-scaling-stroke"/>
      <path class="cls-1" d="M364.04,209.16c4.47,8.37,9.53,16.93,15.16,25.7.23.36.7.47,1.06.24.1-.06.18-.14.24-.24,7.61-11.89,13.84-24.22,18.68-37.01,4.13-10.91,7.11-23.43,6.2-34.57-.44-5.51-1.81-11.83-8.29-12.51-4.45-.46-9.05.51-13.81,2.92-14.74,7.47-22.42,22.04-25.7,38.15-.41,2.05-.21,3.94.62,5.69,2,4.21,3.95,8.09,5.84,11.63" vector-effect="non-scaling-stroke"/>
      <path class="cls-1" d="M333.47,250.71c-11.47,20.94-25.3,39.73-41.48,56.38-1.21,1.25-1,1.59.64,1,3.77-1.35,7.35-2.93,10.74-4.74,19.16-10.22,36.38-22.75,51.66-37.59.26-.25.29-.53.08-.82-5.59-8.04-10.52-16.33-14.81-24.88-.13-.26-.44-.36-.7-.23-.09.05-.17.12-.22.21-2.07,3.7-4.04,7.26-5.91,10.67" vector-effect="non-scaling-stroke"/>
      <path class="cls-4" d="M637.68,503.01c.78-12.36,5.76-22.61,13.03-32.87,3.03-4.27,6.13-7.68,9.3-10.25.97-.79.84-1.04-.37-.76-10.89,2.51-21.89,3.74-32.98,3.7-.26,0-.48.16-.56.4-2.92,9.05-5.96,18.09-9.12,27.12-4.95,14.15-10.35,30.21-16.19,48.19-.8,2.48-2.03,6.72-1.44,9.27.14.6.74.98,1.34.84.08-.02.16-.05.24-.08,2.21-1.07,4.26-2.52,6.15-4.37,11.75-11.51,20.97-24.51,29.75-38.48.51-.8.79-1.7.85-2.71" vector-effect="non-scaling-stroke"/>
      <path class="cls-4" d="M688.4,478.16c2.9-3.08,6.15-7.98,3.41-12.03-.69-1.02-2.01-1.41-3.14-.93-10.85,4.6-19.06,16.15-24.62,26.42-.45.83-.24,1.06.63.69,2.61-1.12,5.16-2.19,7.67-3.22,6.22-2.54,11.57-6.18,16.05-10.93" vector-effect="non-scaling-stroke"/>
      <path class="cls-4" d="M290.48,487.4c-.74,1.17-1.33,2.39-1.77,3.65-.19.55-.01.75.55.59,7.73-2.19,14.57-5.62,20.51-10.29,4.23-3.33,6.45-7.7,6.64-13.11.04-1.15-.84-2.12-1.99-2.21-1.66-.12-3.49.52-4.85,1.43-7.55,5.1-13.92,11.75-19.09,19.94" vector-effect="non-scaling-stroke"/>
      <path class="cls-4" d="M143.67,483.87c-4.88,10.87-7.86,21.86-8.94,32.96-.33,3.4-.65,8.28.9,11.46.37.76,1.21,1.17,2.04,1.01,5.66-1.11,10.46-7.14,13.61-11.6,5.49-7.77,10.24-16.84,14.27-27.21.13-.31.03-.53-.29-.66-8.23-3.18-10.84-11.12-10.02-19.51.15-1.51-.35-1.76-1.48-.74-4.14,3.77-7.5,8.53-10.09,14.29" vector-effect="non-scaling-stroke"/>
    </g>
    <path class="cls-7" d="M157.4,28.94c3.87-8.81,8.88-16.99,15.03-24.54,1.13-1.39,2.42-2.46,3.85-3.21.82-.43,1.83-.11,2.25.71.01.02.02.05.04.07,1.9,4.13,1.33,10.41.95,14.84-1,11.8-3.51,23.78-7.53,35.95-1.27,3.83-2.73,7.21-4.4,10.14-1.83,3.23-4.62,4.09-8.36,2.58-4.54-1.84-9.14-3.83-11.69-8.31-4.59-8.07-9.22-16.9-13.91-26.51-2.2-4.51-4.78-8.73-7.73-12.68-.31-.41-.35-.96-.12-1.42.32-.63.84-.94,1.57-.94,4.85,0,8.86.69,12.02,2.07,6.44,2.81,13.01,5.13,17.12,11.33.16.24.48.3.72.15.08-.06.15-.13.19-.23Z"/>
    <path class="cls-9" d="M541.93,13.21c.26.45.85.61,1.3.34,0,0,0,0,0,0,4.33-2.56,14.31-9,19.31-7.59.73.2,1.16.96.95,1.69,0,.03-.02.07-.03.1-3.13,8.43-9.99,15.33-16.69,21.02-2.41,2.05-5.66,5.61-9.1,3.18-2.52-1.78-3.91-4.36-4.17-7.74-.35-4.51.07-9.62,1.27-15.34.13-.64.75-1.05,1.4-.92,0,0,.02,0,.02,0,2.83.63,4.29,2.82,5.74,5.26Z"/>
    <path class="cls-7" d="M352.64,180.87c.26.45.69.66,1.3.61.33-.03.59.09.79.35l1.3,1.72c.22.29.28.61.19.96l-1.33,5.33c-.08.31-.06.62.07.92.66,1.55-.14,3.19.05,4.86.01.17-.06.28-.23.33-.13.04-.23.12-.29.25-.04.08-.03.16.02.24.07.1.15.18.26.25.11.07.17.17.16.31l-.15,3.34c-.02.31-.18.5-.48.58l-.38.09c-.43.11-.72.37-.87.78-.31.82-.68,1.6-1.13,2.35-.29.48-.73.72-1.32.73-.35,0-.65.11-.92.33-.54.45-.94.99-1.2,1.63-.13.31-.35.41-.66.31-1.03-.31-1.96-.03-2.77.86-.25.28-.62.42-1,.4-1.41-.09-2.62.5-3.63,1.75-.25.31-.55.36-.88.14-1.07-.69-2.03-.52-2.86.49-1.81,2.21-3.69,3.39-5.66,3.54-.11.01-.21.06-.29.15-.03.04-.03.08-.02.12.12.35.04.4-.24.17-.33-.27-.49-.27-.48,0-8.13-22.11-13.03-44.93-14.69-68.45-2.5-35.45,4.13-71.12,28.65-98.18,6.25-6.89,13.66-12.36,22.22-16.39,13.63-6.41,27.96-6.79,42.98-1.14,43.43,16.35,60.66,62.88,63.4,105.76,0,.12-.08.22-.2.24-.16.02-.31-.02-.44-.12-.21-.16-.35-.36-.44-.59-2.13-5.97-4.37-11.87-6.72-17.71-6.65-16.48-14.86-30.85-24.64-43.12-15.63-19.61-42.72-37.42-67.1-21.88-20.43,13.03-30.55,39.07-31.37,62.66-.77,21.93,2.69,43.48,10.37,64.65.06.18.18.29.37.33.07.02.16.04.26.05Z"/>
    <path class="cls-7" d="M256.55,320.68l1.54.74c.29.14.52.08.69-.19.29-.43.71-.63,1.26-.59.2.01.24.1.13.26-.08.11-.09.22-.02.33.1.17.25.27.45.3.35.05.67.16.96.32.26.15.39.46.31.75-.15.56.03.99.56,1.28.29.17.28.32-.03.45-.46.19-.68.57-.65,1.15.03.41.18.77.47,1.09.51.55.93,1.12,1.27,1.71.23.39.56.51.98.36.39-.13.64-.02.75.35.07.27.25.42.53.46.21.03.39-.01.55-.12.05-.03.08-.08.08-.15,0-.04-.01-.07-.04-.09-.15-.15-.13-.21.08-.2.78.03,1.57.05,2.38.04.19,0,.37-.06.53-.17.21-.15.23-.32.06-.51-.27-.31-.2-.43.2-.35.39.07.61-.09.64-.49.03-.46.28-.64.73-.54,1.21.28,2.32.16,3.34-.37.29-.15.53-.09.71.19.19.3.25.58.18.83-21.13,12.06-43.33,20.13-66.6,24.22-21.64,3.81-46.32,3.57-66.48-5.13-3.31-1.43-6.38-3.19-9.2-5.3-3.24-2.41-4.48-5.56-3.73-9.46.67-3.43,1.25-6.6,1.75-9.51.03-.16-.07-.32-.23-.35-.06-.01-.11,0-.17.01-.24.09-.43.24-.56.46-6.12,10.3-12.9,20.3-20.35,29.99-2.17,2.82-6.54,9.42-10.38,9.22-6.54-.35-11.89-3.1-16.05-8.26-3.23-4-3.17-9.8-2.51-14.65,1.06-7.79,2.8-16.57,5.22-26.33,14.38-57.99,35.02-112.42,61.91-163.29,10.97-20.75,22.68-39.67,35.14-56.74,16.3-22.36,57.98-70.98,89.74-52.4,7.56,4.43,12.35,11.36,14.36,20.81.31,1.47.04,1.59-.81.35-4.08-5.87-8.94-10.73-16.63-10.55-11.7.28-24.04,9.5-32.6,17.91-8.61,8.47-16.09,17.27-22.44,26.4-11.47,16.53-21.58,33.55-30.31,51.08-15.93,32-30.34,64.55-42.76,98.14-6.67,18.01-13.36,36.57-20.08,55.7-1.7,4.83-3.23,9.68-4.6,14.54-.25.9-.03,1.04.66.41.9-.81,1.26-2.24,1.9-3.26,6.36-10.14,12.6-20.3,18.73-30.49,9.7-16.15,19.69-31.42,30.08-47.15,1.05-1.59,2.12-3.06,3.21-4.4,3.46-4.27,8.39.2,11,3.01,3.11,3.35,4.38,6.93,3.82,10.76-.56,3.85-1.71,8.15-3.44,12.92-6.62,18.23-13.02,34.9-19.19,49.99-.18.43-.04.59.42.5.42-.08.77-.28,1.05-.61,13.75-16.11,27.54-32.5,41.38-49.17,8.59-10.35,16.96-21.31,25.11-32.87,2.6-3.69,5.35-7.74,5.8-12.38.69-7.1.59-14.8-.31-23.09-.72-6.61,6.64-5,9.98-3.17,10.49,5.75,17.51,17.3,16.82,29.21-.07,1.26.26,1.38.99.35,8.27-11.64,18.45-21.5,30.56-28.88,2-1.21,7.62-3.87,9.27-.95,1.68,2.98,1.79,6,.32,9.05-3.24,6.75-6.5,14-10.14,20.57-7.81,14.11-16.62,26.86-26.42,38.27-3.97,4.62-8.18,8.9-12.65,12.84-1.21,1.07-2.76,1.32-4.2.57-5.01-2.59-8.74-6.45-11.21-11.56-3.21-6.63-2.7-14.48-2.73-21.69,0-.73-.22-.79-.64-.19-24.74,35.08-51.07,68.29-78.16,101.33-.22.27-.18.67.09.89.06.04.12.08.19.1,6.24,2.19,12.74,3.4,19.49,3.64,11.91.41,23.67-.77,35.27-3.54,14.69-3.52,28.92-8.42,42.68-14.71Z"/>
    <path class="cls-9" d="M375.5,299.87l1.05-2.72c.12-.31.34-.49.67-.54.53-.08.97-.13,1.32-.15.72-.03.85-.33.4-.89-.16-.2-.31-.23-.46-.09-.37.35-.55.28-.53-.23,0-.16,0-.32-.02-.47-.03-.39.11-.78.39-1.06.34-.35.55-.75.62-1.22.07-.5.36-.76.87-.77,1.24-.04,1.86-.72,1.85-2.05,0-.34.11-.64.34-.9.79-.9,1.53-1.84,2.22-2.83,0,0,.39-.46,1.17-1.37.43-.5.7-1.09.82-1.78.02-.13.1-.18.23-.15.09.02.18.01.26-.02.1-.04.18-.11.23-.2.06-.11.04-.2-.05-.27-.15-.13-.17-.29-.07-.46,1.77-3.17,3.76-6.21,5.95-9.11.13-.17.21-.35.22-.54.01-.19.04-.38.08-.57.07-.34.26-.64.54-.85l2.48-1.91c.32-.24.56-.54.71-.91.44-1.02,1.16-1.88,2.16-2.58.69-.49,1.02-1.1.99-1.85-.01-.25.09-.42.32-.52.53-.23,1.05-.33,1.54-.3.24.02.37-.09.39-.33.04-.63.23-1.21.57-1.73.18-.27.31-.56.38-.87l.26-1.09c.08-.33.29-.53.62-.58.78-.13,1.13-.59,1.04-1.4,0-.09.03-.16.11-.2.65-.35,1.06-.86,1.23-1.54.09-.31.25-.57.5-.78,1.07-.91,1.71-2.11,1.91-3.58.04-.35.28-.65.62-.77l.9-.32c.2-.08.35-.25.39-.46.08-.45.28-.85.6-1.18.15-.15.23-.34.22-.56-.03-.92-.08-1.85-.17-2.79-.05-.49.05-.97.3-1.42.24-.45.53-.87.86-1.26.27-.32.22-.59-.13-.8-.09-.05-.14-.13-.15-.23-.05-.45.06-.88.33-1.27.17-.27.12-.47-.17-.62-.12-.06-.12-.13-.01-.21.41-.26.69-.62.86-1.07.13-.36.41-.65.77-.8.35-.13.6-.36.77-.69.19-.36.28-.75.26-1.16-.05-1.05.17-2.01.65-2.9.2-.37.44-.4.73-.09.08.09.18.12.31.08.39-.12.62-.38.71-.77.07-.31.18-.61.31-.89.18-.39.36-.39.53,0,.07.14.22.18.45.11.29-.07.44-.26.47-.56.03-.37.3-.45.8-.26.19.08.39.11.59.09.49-.03,1.02.11,1.59.43.27.15.3.34.08.56-.49.49-.65,1.08-.47,1.78.03.1.09.17.18.22.09.04.17.02.26-.05.13-.1.19-.23.17-.39-.01-.13.03-.25.14-.34.39-.33.6-.24.63.27.01.25.08.47.2.67-5.11,10.57-10.91,20.69-17.42,30.34-.41.61-.32,1.43.21,1.93,10.35,9.9,20.58,19.44,33.31,25.65,3.38,1.65,16.01-3.48,20.05-5.28,22.33-9.93,42.7-23.98,61.59-40.37,21.45-18.6,39.79-40.08,52.77-65.46,10.08-19.71,15.8-41.84,14.34-63.17-1.96-28.6-19.27-45.89-44.91-55.36-10.52-3.88-20.52-6.05-30-6.51-7.01-.33-14.41-.57-22.2-.71-3.15-.06-6.44-.41-9.89-1.06-.4-.07-.66-.45-.58-.86.02-.08.04-.16.08-.23.2-.33.48-.54.85-.61,11.07-2.29,21.91-4.23,32.51-5.8,25.34-3.76,51.83.37,73.62,13.94,26.82,16.7,40.83,41.29,42.04,73.76.87,23.37-4.07,45.72-14.82,67.06-23.66,46.99-62,85.9-106.55,113.65-15.39,9.59-31.51,17.42-48.38,23.49-4.83,1.74-9.75,3.43-14.76,5.08-.45.14-.93.12-1.36-.05-24.04-9.8-45.74-26.22-63.87-44.79-.46-.46-1.19-.49-1.67-.06l-2.85,2.48Z"/>
    <path class="cls-7" d="M271.64,127.44c1.17-6.39,3.31-13.27,9.22-16.57.67-.37,1.52-.13,1.89.54.08.15.14.31.16.47,1.5,10.25.47,21.21-1.4,31.34-.83,4.47-3.37,14.97-10.3,8.67-6.55-5.97-13.21-12.28-19.94-17.32-2.99-2.24-6.19-4.12-9.59-5.63-.24-.11-.35-.39-.24-.64.05-.11.14-.2.26-.25,2.29-.94,4.5-1.86,6.64-2.76,8.07-3.41,15.65-2.62,22.75,2.38.16.11.38.07.49-.09.03-.04.05-.09.06-.14Z"/>
    <path class="cls-9" d="M487.32,155.05c-.06,1.07.24,1.18.89.33,5.77-7.52,13.03-13.26,21.76-17.21,5.03-2.29,11.78-5.79,17.3-3.03,5.51,2.75,4.14,7.51,1.79,11.73-10.85,19.49-24.4,37.28-40.73,52.3-2.37,2.18-4.99,2.57-7.86,1.18-5.53-2.69-11.7-7.04-11.75-13.73-.03-2.67.28-5.34.93-7.99,1.89-7.73,4.53-16.3,7.94-25.72,1.43-3.97,2.63-8.64,3.58-13.99.49-2.81,1.65-3.12,3.48-.93.27.32.48.57.63.75,1.86,2.23,2.71,4.8,2.54,7.7l-.5,8.61Z"/>
    <path class="cls-7" d="M423.39,232.81c-.12-.2-.19-.42-.2-.67-.03-.51-.24-.6-.63-.27-.11.09-.15.21-.14.34.02.16-.04.29-.17.39-.09.07-.17.09-.26.05-.09-.05-.15-.12-.18-.22-.18-.7-.02-1.29.47-1.78.22-.22.19-.41-.08-.56-.57-.32-1.1-.46-1.59-.43-.2.02-.4,0-.59-.09-.5-.19-.77-.11-.8.26-.03.3-.18.49-.47.56-.23.07-.38.03-.45-.11-.17-.39-.35-.39-.53,0-.13.28-.24.58-.31.89-.09.39-.32.65-.71.77-.13.04-.23.01-.31-.08-.29-.31-.53-.28-.73.09-.48.89-.7,1.85-.65,2.9.02.41-.07.8-.26,1.16-.17.33-.42.56-.77.69-.36.15-.64.44-.77.8-.17.45-.45.81-.86,1.07-.11.08-.11.15.01.21.29.15.34.35.17.62-.27.39-.38.82-.33,1.27.01.1.06.18.15.23.35.21.4.48.13.8-.33.39-.62.81-.86,1.26-.25.45-.35.93-.3,1.42.09.94.14,1.87.17,2.79,0,.22-.07.41-.22.56-.32.33-.52.73-.6,1.18-.04.21-.19.38-.39.46l-.9.32c-.34.12-.58.42-.62.77-.2,1.47-.84,2.67-1.91,3.58-.25.21-.41.47-.5.78-.17.68-.58,1.19-1.23,1.54-.08.04-.12.11-.11.2.09.81-.26,1.27-1.04,1.4-.33.05-.54.25-.62.58l-.26,1.09c-.07.31-.2.6-.38.87-.34.52-.53,1.1-.57,1.73-.02.24-.15.35-.39.33-.49-.03-1.01.07-1.54.3-.23.1-.33.27-.32.52.03.75-.3,1.36-.99,1.85-1,.7-1.72,1.56-2.16,2.58-.15.37-.39.67-.71.91l-2.48,1.91c-.28.21-.47.51-.54.85-.04.19-.07.38-.08.57-.01.19-.09.37-.22.54-2.19,2.9-4.18,5.94-5.95,9.11-.1.17-.08.33.07.46.09.07.11.16.05.27-.05.09-.13.16-.23.2-.08.03-.17.04-.26.02-.13-.03-.21.02-.23.15-.12.69-.39,1.28-.82,1.78-.78.91-1.17,1.36-1.17,1.37-.69.99-1.43,1.93-2.22,2.83-.23.26-.34.56-.34.9,0,1.33-.61,2.01-1.85,2.05-.51.01-.8.27-.87.77-.07.47-.28.87-.62,1.22-.28.28-.42.67-.39,1.06.01.15.02.31.02.47-.02.51.16.58.53.23.15-.14.3-.11.46.09.45.56.32.86-.4.89-.35.02-.79.07-1.32.15-.33.05-.55.23-.67.54l-1.05,2.72c-20.53,20.25-44.14,36.03-70.83,47.32-4.33,1.83-8.25,1.87-11.76.1-2.19-1.11-4.76-3.22-7.72-6.33-2.79-2.93-6.13-7.41-10-13.44.07-.25,0-.53-.18-.83-.18-.28-.42-.34-.71-.19-1.02.53-2.13.65-3.34.37-.45-.1-.7.08-.73.54-.03.4-.25.56-.64.49-.4-.08-.47.04-.2.35.17.19.15.36-.06.51-.16.11-.34.16-.53.17-.81,0-1.6,0-2.38-.04-.21-.01-.23.05-.08.2.03.02.04.05.04.09,0,.07-.03.12-.08.15-.16.11-.34.15-.55.12-.28-.04-.46-.19-.53-.46-.11-.37-.36-.48-.75-.35-.42.15-.75.03-.98-.36-.34-.59-.76-1.16-1.27-1.71-.29-.32-.44-.68-.47-1.09-.03-.58.19-.96.65-1.15.31-.13.32-.28.03-.45-.53-.29-.71-.72-.56-1.28.08-.29-.05-.6-.31-.75-.29-.16-.61-.27-.96-.32-.2-.03-.35-.13-.45-.3-.07-.11-.06-.22.02-.33.11-.16.07-.25-.13-.26-.55-.04-.97.16-1.26.59-.17.27-.4.33-.69.19l-1.54-.74,12.65-5.87c.5-.23.63-.6.38-1.09-2.31-4.71-3.97-9.5-4.99-14.37-.09-.42-.06-.83.08-1.24.08-.25.36-.39.61-.3.06.02.12.06.17.1l9.95,9.33c.64.6,1.33.67,2.08.22,2.8-1.72,5.12-3.82,7.62-5.91,22.19-18.56,39.35-41.08,51.46-67.56.31-.67.33-1.44.06-2.12l-6.63-17.11c0-.27.15-.27.48,0,.28.23.36.18.24-.17-.01-.04,0-.08.02-.12.08-.09.18-.14.29-.15,1.97-.15,3.85-1.33,5.66-3.54.83-1.01,1.79-1.18,2.86-.49.33.22.63.17.88-.14,1.01-1.25,2.22-1.84,3.63-1.75.38.02.75-.12,1-.4.81-.89,1.74-1.17,2.77-.86.31.1.53,0,.66-.31.26-.64.66-1.18,1.2-1.63.27-.22.57-.33.92-.33.59,0,1.03-.25,1.32-.73.45-.75.82-1.53,1.13-2.35.15-.41.44-.67.87-.78l.38-.09c.3-.08.46-.27.48-.58l.15-3.34c0-.14-.05-.24-.16-.31-.11-.07-.19-.15-.26-.25-.05-.08-.06-.16-.02-.24.06-.13.16-.21.29-.25.17-.05.24-.16.23-.33-.19-1.67.61-3.31-.05-4.86-.13-.3-.15-.61-.07-.92l1.33-5.33c.09-.35.03-.67-.19-.96l-1.3-1.72c-.2-.26-.46-.38-.79-.35-.61.05-1.04-.16-1.3-.61,4.63-9.79,8.89-19.15,16.14-27.01,8.1-8.79,19.89-14.19,32.1-13.7,13.17.52,22.9,6.3,28.95,18.22,6.6,12.99,7.55,27.93,4.58,42.15-2.33,11.18-6.01,21.94-11.02,32.28ZM364.04,209.16c4.47,8.37,9.53,16.93,15.16,25.7.23.36.7.47,1.06.24.1-.06.18-.14.24-.24,7.61-11.89,13.84-24.22,18.68-37.01,4.13-10.91,7.11-23.43,6.2-34.57-.44-5.51-1.81-11.83-8.29-12.51-4.45-.46-9.05.51-13.81,2.92-14.74,7.47-22.42,22.04-25.7,38.15-.41,2.05-.21,3.94.62,5.69,2,4.21,3.95,8.09,5.84,11.63ZM333.47,250.71c-11.47,20.94-25.3,39.73-41.48,56.38-1.21,1.25-1,1.59.64,1,3.77-1.35,7.35-2.93,10.74-4.74,19.16-10.22,36.38-22.75,51.66-37.59.26-.25.29-.53.08-.82-5.59-8.04-10.52-16.33-14.81-24.88-.13-.26-.44-.36-.7-.23-.09.05-.17.12-.22.21-2.07,3.7-4.04,7.26-5.91,10.67Z"/>
    <path class="cls-8" d="M364.04,209.16c-1.89-3.54-3.84-7.42-5.84-11.63-.83-1.75-1.03-3.64-.62-5.69,3.28-16.11,10.96-30.68,25.7-38.15,4.76-2.41,9.36-3.38,13.81-2.92,6.48.68,7.85,7,8.29,12.51.91,11.14-2.07,23.66-6.2,34.57-4.84,12.79-11.07,25.12-18.68,37.01-.23.36-.7.47-1.06.24-.1-.06-.18-.14-.24-.24-5.63-8.77-10.69-17.33-15.16-25.7Z"/>
    <path class="cls-8" d="M333.47,250.71c1.87-3.41,3.84-6.97,5.91-10.67.14-.25.46-.34.71-.2.09.05.17.13.21.22,4.29,8.55,9.22,16.84,14.81,24.88.21.29.18.57-.08.82-15.28,14.84-32.5,27.37-51.66,37.59-3.39,1.81-6.97,3.39-10.74,4.74-1.64.59-1.85.25-.64-1,16.18-16.65,30.01-35.44,41.48-56.38Z"/>
    <g>
      <path class="cls-9" d="M394.15,541.53c6.29.86,14.65-2.89,20.13-5.81,24.71-13.18,42.14-32.94,52.31-59.28,7.67-19.86,8.58-44.58-2.38-63.27-2.84-4.85-7.1-8.38-12.77-9.57-11.49-2.4-23.02-.4-34.36,3.56-16.79,5.86-32.83,19.46-42.12,33.38-2.67,4.01-3.96,8.04-3.86,12.11.07,2.73-.98,3.28-3.16,1.63-.41-.31-.82-.62-1.23-.93-2.2-1.66-3.48-3.86-3.83-6.59-.96-7.41,2.03-16.08,5.53-22.52,11.34-20.87,31.51-36.76,55.64-39.26,14.8-1.54,28.89.53,41.81,7.88,18.04,10.25,29.59,28.46,32.43,48.91,1.56,11.25,1.05,21.9-1.53,31.97-8.53,33.28-34.44,61.9-63.68,79.1-13.17,7.75-30.07,14.08-45.02,10.32-11.82-2.97-19.31-14.65-18.32-26.53.38-4.48,1.7-8.93,3.22-13.09,6.99-19.08,13.77-38.38,20.35-57.89,3.45-10.25,6.19-19.54,8.2-27.89,1.53-6.32,3.17-13.03-2.14-18.26-.36-.35-.36-.93,0-1.29.1-.1.22-.18.36-.22,11.07-3.63,21.46,4.42,23.58,15.25,1.31,6.69.91,14.16-1.21,22.42-2.2,8.55-4.85,17.52-7.94,26.91-6.79,20.61-13.8,39.67-21.03,57.18-.27.66.05,1.42.71,1.7.1.04.21.07.32.08Z"/>
      <path class="cls-9" d="M585.49,512.26c-.2.15-.37.33-.51.53-4.59,6.56-10,12.68-16.21,18.35-2.48,2.27-5.1,4.17-7.87,5.7-8.25,4.54-17.15,1.35-18.21-8.69-.39-3.67-.31-7.64.24-11.91.16-1.23-.2-1.41-1.08-.53-5.07,5.11-10.74,10.18-17.03,15.19-2.81,2.24-5.68,3.8-8.61,4.67-10.36,3.07-18.5-3.33-19.55-13.74-2.45-24.51,12.65-52.89,33.59-65.62,10.73-6.53,26.4-10.07,32.9,4.31,2.07,4.6,4.6,12.1,2.96,16.73-.19.51-.75.78-1.27.59-.11-.04-.22-.1-.31-.18-5.28-4.64-10.13-6.96-17.17-3.79-10.33,4.65-18.53,14.12-25.07,24.39-4.36,6.84-6.88,13.67-7.55,20.49-.05.52.32.98.84,1.03.15.02.3,0,.44-.06,1.75-.67,3.36-1.62,4.83-2.85,7.18-5.97,14.72-12.99,22.62-21.04,3.27-3.34,6.76-6.25,10.49-8.72,6.26-4.15,17.5-5.61,19.26,4.55.79,4.57-1.12,8.24-4.48,11.23-2.17,1.93-3.69,4.31-4.54,7.13-1.49,4.93-2.78,9.72-3.87,14.35-.39,1.67.06,1.93,1.35.8,9.51-8.34,17.49-18.46,24.86-28.81,1.59-2.23,2.87-4.54,3.85-6.93,2.98-7.3,5.74-15.12,8.27-23.47.07-.23-.05-.47-.28-.54-.05-.02-.1-.02-.15-.02-7.33.29-14.87.45-22.63.46-1.75,0-3.39-.27-4.92-.82-.53-.19-.8-.78-.61-1.31.08-.22.23-.4.43-.52,3.28-2,6.83-3.66,10.64-4.99,6.67-2.31,13.72-4.42,21.13-6.32.32-.08.58-.25.78-.52.56-.74.99-1.54,1.28-2.41,4.06-11.93,6.83-22.29,8.32-31.06.49-2.87-.35-5.17-2.51-6.92-.56-.46-.64-1.29-.17-1.84,0,0,0,0,0,0,7-8.35,19.28-7.68,24.34,2.44,3.43,6.86,2.79,13.98.93,21.4-1.26,5.01-2.65,9.69-4.16,14.03-.11.31,0,.46.34.45,10.74-.47,21.22-2.36,31.43-5.67,5.76-1.87,10.8-4.6,15.12-8.19.53-.44,1.27-.51,1.86-.17,6.81,3.92,9.81,9.41,6.81,16.88-.17.41-.03.65.41.71,2.93.43,6.03.91,8.68,2.26,5.73,2.94,8.39,7.81,7.99,14.62-1.07,18.39-26.39,28.93-41.32,32.02-.75.16-1.31.76-1.42,1.51-.69,4.91-1.06,9.79-1.09,14.64-.03,5.47,3.56,10.92,9.68,9.69,3.16-.64,6.19-1.77,9.08-3.4,11.7-6.56,21.96-16.35,31.89-26.19,3.69-3.66,6.79-7.1,9.32-10.33.51-.65,1.1-.74,1.78-.27l4.03,2.75c.67.46.75,1,.23,1.63-8.4,10.13-17.48,19.51-27.23,28.13-9.35,8.28-23.77,18.91-36.43,18.31-9.59-.46-17.95-7.8-22.14-16.58-.1-.21-.36-.3-.57-.2-.07.03-.12.08-.17.14-8.45,12.19-17.81,24.22-29.35,34.38-6.68,5.87-14.37,8.49-21.55,2.05-11.21-10.07-7.08-30.81-2.47-43.55.25-.69.08-.82-.5-.37ZM637.68,503.01c.78-12.36,5.76-22.61,13.03-32.87,3.03-4.27,6.13-7.68,9.3-10.25.97-.79.84-1.04-.37-.76-10.89,2.51-21.89,3.74-32.98,3.7-.26,0-.48.16-.56.4-2.92,9.05-5.96,18.09-9.12,27.12-4.95,14.15-10.35,30.21-16.19,48.19-.8,2.48-2.03,6.72-1.44,9.27.14.6.74.98,1.34.84.08-.02.16-.05.24-.08,2.21-1.07,4.26-2.52,6.15-4.37,11.75-11.51,20.97-24.51,29.75-38.48.51-.8.79-1.7.85-2.71ZM688.4,478.16c2.9-3.08,6.15-7.98,3.41-12.03-.69-1.02-2.01-1.41-3.14-.93-10.85,4.6-19.06,16.15-24.62,26.42-.45.83-.24,1.06.63.69,2.61-1.12,5.16-2.19,7.67-3.22,6.22-2.54,11.57-6.18,16.05-10.93Z"/>
    </g>
    <g>
      <path class="cls-9" d="M27.43,541.32c-.02.21.13.4.33.42.04,0,.08,0,.12,0,4.36-.99,8.82-1.92,13.11-3.23,17.88-5.46,36.6-11.63,54.6-13.36,7.15-.68,17.46-.23,20.65,7.73,1.7,4.25,1.95,8.3.76,12.15-.21.66-.87,1.07-1.55.96-8.58-1.41-17.59.4-26.33,2.75-11.38,3.07-29.96,8.94-45.27,12.64-13.44,3.25-30.75,4.24-37.15-11.17-4.4-10.59-1.65-20.29,2.3-30.92,7.29-19.62,13.39-36.8,18.3-51.55,4.39-13.19,7.77-25.34,10.16-36.45,1.34-6.24,4.06-20.51-2.07-24.97-.6-.44-1.4-.47-2.04-.09-7.95,4.78-13.77,14.01-18.73,23.18-4.11,7.61-6.71,13.91-6,22.74.06.64-.42,1.2-1.06,1.26-.22.02-.44-.02-.64-.13-4.55-2.39-6.48-6.28-5.78-11.65.61-4.67,1.78-9.23,3.51-13.68,4.03-10.39,9.78-21.08,17.33-28.79,8.53-8.71,22.01-14.1,32.79-6.48,12.43,8.77,10.92,27.89,8.27,40.8-4.12,20.04-10.13,40.4-18.02,61.07-5.25,13.75-10.69,27.65-16.3,41.7-.66,1.65-1.09,3.34-1.29,5.08Z"/>
      <path class="cls-9" d="M198.98,486.7c.01-.45-.18-.57-.58-.36-4.99,2.65-10.46,4.51-16.41,5.59-.43.07-.7.32-.82.74-4.57,15.58-13.86,31.14-27.28,40.14-14.05,9.43-34.53,6.98-39.25-11.32-1.03-4.01-1.36-8.62-.98-13.83.73-10.07,3.1-19.89,7.09-29.46,5.25-12.57,18.69-29.24,34.01-26.35,5.1.96,8.06,4.5,8.04,9.58,0,.46.22.62.67.49,12.65-3.91,18.87,8.98,19.18,19.65.01.45.24.62.67.52,5.95-1.41,10.55-2.99,13.8-4.73,1.03-.55,1.58-1.41,1.64-2.58.35-7.33-1.32-14.07-5.01-20.21-.57-.94-.26-2.17.68-2.74.07-.04.14-.08.22-.11,7.12-3.21,13.29-2.51,18.52,2.08,3.61,3.17,6.01,7.32,7.2,12.44,1.89,8.15,2.23,17.12,1.01,26.91-1.14,9.18-2.84,17.97-5.09,26.37-.61,2.29-.09,2.59,1.56.88,9.35-9.64,17.88-19.7,25.61-30.17.26-.35.19-.85-.16-1.11-.02-.02-.04-.03-.07-.04-4.67-2.76-7.37-6.75-8.12-11.97-.91-6.36.01-12.01,2.78-16.94,2.81-4.99,7.7-8.58,13.56-7.84,2.81.35,5.04,1.55,6.67,3.58,5.48,6.84,3.66,18.18.7,26.33-.19.53-.01.76.55.7,3.59-.4,7.75-1.03,9.98-4.23,2.05-2.93,4.26-5.82,6.64-8.69,8.63-10.37,23.37-21.82,37.54-18.33,18.05,4.44,16.32,24.62,4.49,34.4-9.25,7.64-19.81,12.18-31.7,13.63-.58.07-.93.4-1.04.97-1.2,6.21-2.17,14.18.1,20.08,4.52,11.7,19.9.36,25.41-3.83,12.39-9.4,23.32-20.51,34.07-31.88.69-.72,1.38-.73,2.08-.04l2.82,2.79c.63.63.68,1.3.14,2.02-4.33,5.75-8.95,11.05-13.84,15.91-10.44,10.35-20.31,19.52-33.08,26.37-4.06,2.18-8.35,4.17-12.96,4.46-4.55.29-8.93-.57-13.12-2.56-6.99-3.34-10.96-8.87-12.83-16.29-2.26-8.96-1.88-17.67,1.14-26.12.07-.19-.02-.4-.21-.48-.08-.03-.17-.03-.26,0-2.92.94-5.88,1.49-8.88,1.65-1.07.06-1.9.73-2.45,1.6-1.45,2.27-2.94,4.37-4.47,6.32-10.9,13.85-22.67,26.68-35.78,37.56-3.09,2.57-5.8,4.11-8.12,4.62-3.8.85-7.26.09-10.38-2.26-3.25-2.46-2.42-8.6-1.73-12.13,2.88-14.55,5.63-28.14,6.05-41.78ZM290.48,487.4c-.74,1.17-1.33,2.39-1.77,3.65-.19.55-.01.75.55.59,7.73-2.19,14.57-5.62,20.51-10.29,4.23-3.33,6.45-7.7,6.64-13.11.04-1.15-.84-2.12-1.99-2.21-1.66-.12-3.49.52-4.85,1.43-7.55,5.1-13.92,11.75-19.09,19.94ZM143.67,483.87c-4.88,10.87-7.86,21.86-8.94,32.96-.33,3.4-.65,8.28.9,11.46.37.76,1.21,1.17,2.04,1.01,5.66-1.11,10.46-7.14,13.61-11.6,5.49-7.77,10.24-16.84,14.27-27.21.13-.31.03-.53-.29-.66-8.23-3.18-10.84-11.12-10.02-19.51.15-1.51-.35-1.76-1.48-.74-4.14,3.77-7.5,8.53-10.09,14.29Z"/>
    </g>
    <path class="cls-8" d="M290.48,487.4c5.17-8.19,11.54-14.84,19.09-19.94,1.36-.91,3.19-1.55,4.85-1.43,1.15.09,2.03,1.06,1.99,2.21-.19,5.41-2.41,9.78-6.64,13.11-5.94,4.67-12.78,8.1-20.51,10.29-.56.16-.74-.04-.55-.59.44-1.26,1.03-2.48,1.77-3.65Z"/>
    <path class="cls-8" d="M143.67,483.87c2.59-5.76,5.95-10.52,10.09-14.29,1.13-1.02,1.63-.77,1.48.74-.82,8.39,1.79,16.33,10.02,19.51.32.13.42.35.29.66-4.03,10.37-8.78,19.44-14.27,27.21-3.15,4.46-7.95,10.49-13.61,11.6-.83.16-1.67-.25-2.04-1.01-1.55-3.18-1.23-8.06-.9-11.46,1.08-11.1,4.06-22.09,8.94-32.96Z"/>
  </g>
</svg>